<svg xmlns="http://www.w3.org/2000/svg" viewBox="0 0 800 600" fill="none">
  <!-- Background Circle -->
  <circle cx="400" cy="300" r="280" fill="#E0F2FE" opacity="0.8"/>
  
  <!-- Desk -->
  <rect x="150" y="350" width="500" height="20" rx="10" fill="#8B5CF6"/>
  <rect x="160" y="370" width="10" height="80" rx="5" fill="#7C3AED"/>
  <rect x="630" y="370" width="10" height="80" rx="5" fill="#7C3AED"/>
  
  <!-- Laptop -->
  <rect x="200" y="280" width="180" height="120" rx="8" fill="#1E293B"/>
  <rect x="210" y="290" width="160" height="100" rx="4" fill="#3B82F6"/>
  <circle cx="290" cy="340" r="8" fill="#FFFFFF" opacity="0.3"/>
  
  <!-- Person -->
  <!-- Head -->
  <circle cx="450" cy="200" r="40" fill="#FBBF24"/>
  
  <!-- Hair -->
  <path d="M420 180 C420 160, 480 160, 480 180 C480 170, 470 165, 450 165 C430 165, 420 170, 420 180" fill="#92400E"/>
  
  <!-- Glasses -->
  <circle cx="435" cy="195" r="12" fill="none" stroke="#374151" stroke-width="2"/>
  <circle cx="465" cy="195" r="12" fill="none" stroke="#374151" stroke-width="2"/>
  <line x1="447" y1="195" x2="453" y2="195" stroke="#374151" stroke-width="2"/>
  
  <!-- Eyes -->
  <circle cx="435" cy="195" r="3" fill="#1F2937"/>
  <circle cx="465" cy="195" r="3" fill="#1F2937"/>
  
  <!-- Smile -->
  <path d="M440 210 Q450 220 460 210" stroke="#1F2937" stroke-width="2" fill="none"/>
  
  <!-- Body -->
  <rect x="420" y="240" width="60" height="80" rx="30" fill="#059669"/>
  
  <!-- Arms (relaxed position) -->
  <ellipse cx="390" cy="270" rx="15" ry="35" fill="#FBBF24" transform="rotate(-20 390 270)"/>
  <ellipse cx="510" cy="270" rx="15" ry="35" fill="#FBBF24" transform="rotate(20 510 270)"/>
  
  <!-- Hands -->
  <circle cx="380" cy="300" r="12" fill="#FBBF24"/>
  <circle cx="520" cy="300" r="12" fill="#FBBF24"/>
  
  <!-- Legs -->
  <rect x="435" y="320" width="15" height="40" rx="7" fill="#1E40AF"/>
  <rect x="450" y="320" width="15" height="40" rx="7" fill="#1E40AF"/>
  
  <!-- Email Icon -->
  <rect x="500" y="150" width="60" height="40" rx="8" fill="#F59E0B"/>
  <path d="M510 160 L530 175 L550 160" stroke="#FFFFFF" stroke-width="2" fill="none"/>
  <circle cx="545" cy="155" r="6" fill="#EF4444"/>
  <circle cx="545" cy="155" r="3" fill="#FFFFFF"/>
  
  <!-- Message Bubbles -->
  <rect x="250" y="180" width="120" height="30" rx="15" fill="#8B5CF6"/>
  <circle cx="360" cy="205" r="4" fill="#8B5CF6"/>
  <circle cx="365" cy="210" r="2" fill="#8B5CF6"/>
  
  <rect x="520" y="220" width="100" height="25" rx="12" fill="#10B981"/>
  <circle cx="515" cy="240" r="3" fill="#10B981"/>
  <circle cx="510" cy="243" r="1.5" fill="#10B981"/>
  
  <!-- Coffee Cup -->
  <rect x="600" y="320" width="30" height="35" rx="4" fill="#8B4513"/>
  <rect x="605" y="325" width="20" height="25" rx="2" fill="#D2691E"/>
  <ellipse cx="615" cy="325" rx="8" ry="3" fill="#8B4513"/>
  <path d="M630 335 Q640 335 640 345 Q640 355 630 355" stroke="#8B4513" stroke-width="2" fill="none"/>
  
  <!-- Steam -->
  <path d="M610 315 Q612 305 610 295" stroke="#E5E7EB" stroke-width="2" fill="none" opacity="0.7"/>
  <path d="M620 315 Q618 305 620 295" stroke="#E5E7EB" stroke-width="2" fill="none" opacity="0.7"/>
  
  <!-- Floating Elements -->
  <circle cx="180" cy="120" r="8" fill="#F3F4F6" opacity="0.6"/>
  <circle cx="650" cy="100" r="12" fill="#F3F4F6" opacity="0.4"/>
  <circle cx="700" cy="200" r="6" fill="#F3F4F6" opacity="0.5"/>
  <circle cx="120" cy="250" r="10" fill="#F3F4F6" opacity="0.3"/>
</svg>